<?xml version="1.0" standalone="no"?>
<!DOCTYPE svg PUBLIC "-//W3C//DTD SVG 20010904//EN"
 "http://www.w3.org/TR/2001/REC-SVG-20010904/DTD/svg10.dtd">
<svg version="1.0" xmlns="http://www.w3.org/2000/svg"
 width="717.000000pt" height="348.000000pt" viewBox="0 0 717.000000 348.000000"
 preserveAspectRatio="xMidYMid meet">

<g transform="translate(0.000000,348.000000) scale(0.100000,-0.100000)"
fill="#000000" stroke="none">
<path d="M1570 3471 c-205 -22 -412 -84 -608 -181 -487 -242 -818 -680 -929
-1229 -22 -110 -26 -151 -26 -321 0 -170 4 -211 26 -322 112 -553 454 -999
950 -1238 146 -71 268 -112 436 -147 111 -23 149 -26 321 -26 171 0 210 3 320
26 69 15 168 40 220 57 129 41 355 155 470 237 113 81 295 258 374 364 63 85
156 236 156 254 0 10 -80 55 -99 55 -5 0 -29 -35 -54 -78 -71 -123 -158 -231
-277 -345 -220 -211 -488 -353 -794 -419 -86 -19 -132 -22 -316 -22 -185 0
-229 3 -315 22 -659 146 -1127 615 -1267 1270 -20 92 -23 136 -23 312 0 177 3
220 23 314 84 389 283 714 585 954 221 175 522 299 808 333 139 16 384 6 511
-21 482 -102 898 -420 1111 -850 29 -58 53 -107 54 -109 4 -7 113 41 113 50 0
19 -94 197 -148 279 -173 268 -409 474 -704 615 -223 107 -446 161 -693 169
-82 3 -184 1 -225 -3z"/>
<path d="M3691 2292 c-51 -28 -76 -82 -75 -167 0 -78 17 -120 60 -154 33 -26
109 -28 142 -5 20 14 22 14 22 0 0 -9 9 -16 20 -16 19 0 20 7 20 100 l0 100
-65 0 c-63 0 -65 -1 -65 -25 0 -22 4 -25 40 -25 37 0 40 -2 40 -29 0 -45 -30
-75 -75 -75 -47 0 -80 35 -90 94 -9 54 11 136 38 155 30 21 80 19 111 -6 28
-22 56 -20 56 5 0 23 -58 58 -103 63 -29 3 -53 -2 -76 -15z"/>
<path d="M4503 2302 c-6 -4 -12 -62 -15 -135 -4 -115 -6 -130 -26 -149 -28
-28 -94 -31 -119 -5 -15 15 -19 40 -21 152 l-4 135 -24 0 -24 0 0 -117 c0
-193 23 -233 131 -233 75 0 116 32 130 100 14 75 11 247 -4 253 -8 3 -18 2
-24 -1z"/>
<path d="M4610 2302 c-6 -2 -10 -71 -10 -178 l0 -174 25 0 c24 0 25 2 25 75
l0 75 65 0 c82 0 119 18 135 65 14 43 -1 99 -33 119 -20 13 -181 26 -207 18z
m187 -68 c14 -19 10 -60 -8 -79 -5 -5 -38 -11 -74 -13 l-65 -4 0 62 0 62 66
-4 c51 -3 70 -9 81 -24z"/>
<path d="M4980 2293 c-75 -39 -105 -176 -59 -270 25 -52 61 -73 124 -73 90 0
135 50 143 160 5 78 -19 147 -62 175 -39 26 -104 29 -146 8z m112 -44 c42 -23
62 -127 37 -198 -11 -31 -52 -61 -84 -61 -32 0 -73 30 -84 61 -24 70 -5 174
36 198 24 14 69 14 95 0z"/>
<path d="M5858 2302 l-108 -3 0 -174 0 -175 115 0 115 0 0 25 c0 25 -1 25 -90
25 l-90 0 0 55 0 55 80 0 c73 0 80 2 80 20 0 17 -8 19 -77 22 l-78 3 -3 53 -3
52 90 0 c83 0 91 2 91 19 0 11 -3 21 -7 23 -5 2 -56 2 -115 0z"/>
<path d="M2337 2290 c-27 -5 -81 -24 -120 -43 -242 -115 -329 -422 -186 -649
96 -151 282 -237 452 -209 385 64 528 528 243 789 -55 51 -149 97 -225 112
-61 11 -95 11 -164 0z m235 -122 c73 -34 142 -103 176 -176 23 -49 27 -70 27
-152 0 -84 -3 -102 -28 -152 -35 -71 -104 -140 -176 -176 -49 -24 -68 -27
-151 -27 -84 0 -102 3 -152 28 -122 60 -199 173 -206 303 -9 165 73 296 224
360 82 34 203 31 286 -8z"/>
<path d="M3960 2125 l0 -175 25 0 c24 0 25 2 25 75 l0 75 35 0 c33 0 37 -4 76
-75 36 -67 44 -75 70 -75 l29 0 -30 53 c-57 96 -56 93 -22 122 39 33 50 81 27
124 -21 42 -49 51 -151 51 l-84 0 0 -175z m164 125 c21 -8 26 -16 26 -43 0
-46 -15 -57 -82 -57 l-58 0 0 48 c0 27 3 52 7 55 10 10 78 8 107 -3z"/>
<path d="M5410 2124 l0 -176 101 4 c99 3 101 3 130 36 28 31 29 36 29 133 0
158 -20 179 -170 179 l-90 0 0 -176z m168 125 c39 -13 45 -33 44 -132 0 -104
-12 -117 -99 -117 l-63 0 0 123 c0 68 3 127 7 130 10 11 77 8 111 -4z"/>
<path d="M536 2280 c-31 -10 -63 -35 -77 -62 -7 -13 -2 -22 22 -38 l30 -22 20
21 c24 26 60 27 82 3 15 -17 17 -60 17 -410 l0 -392 45 0 45 0 0 210 0 210
225 0 225 0 1 -182 c0 -114 5 -196 12 -218 24 -70 125 -103 192 -62 26 16 94
118 83 126 -42 31 -70 46 -76 42 -5 -3 -17 -23 -27 -45 -19 -44 -47 -60 -70
-41 -13 11 -15 77 -15 431 l0 419 -50 0 -50 0 0 -190 0 -190 -222 2 -223 3 -5
156 c-5 163 -14 194 -59 218 -28 16 -93 21 -125 11z"/>
<path d="M6703 1958 c-6 -7 -16 -23 -22 -35 -20 -38 19 -29 52 12 l28 35 -24
0 c-14 0 -29 -6 -34 -12z"/>
<path d="M3637 1853 c-4 -3 -7 -84 -7 -180 l0 -173 25 0 25 0 0 180 c0 168 -1
180 -18 180 -10 0 -22 -3 -25 -7z"/>
<path d="M3770 1681 l0 -181 25 0 24 0 3 121 3 120 74 -120 c61 -100 78 -121
98 -121 l23 0 -2 178 c-3 175 -3 177 -25 180 -23 3 -23 2 -23 -119 0 -95 -3
-120 -12 -111 -7 7 -42 60 -78 119 -47 77 -73 109 -88 111 -22 3 -22 3 -22
-177z"/>
<path d="M4080 1853 c0 -4 26 -85 57 -180 51 -154 60 -173 79 -173 20 0 29 19
78 168 31 92 56 173 56 180 0 8 -9 12 -22 10 -20 -3 -29 -21 -63 -125 -22 -67
-43 -125 -47 -128 -4 -4 -23 46 -44 111 -20 66 -41 125 -47 132 -10 13 -47 17
-47 5z"/>
<path d="M4417 1854 c-4 -4 -7 -85 -7 -181 l0 -173 120 0 120 0 0 25 c0 25 0
25 -95 25 l-95 0 0 55 0 55 80 0 c79 0 80 0 80 25 0 25 -1 25 -81 25 l-80 0 3
48 3 47 93 3 c90 3 93 4 90 25 -3 21 -8 22 -114 25 -60 1 -113 -1 -117 -4z"/>
<path d="M4763 1845 c-36 -16 -53 -42 -53 -83 0 -45 28 -71 95 -88 82 -21 105
-38 105 -74 0 -25 -7 -33 -34 -47 -46 -21 -93 -8 -121 33 -15 23 -26 29 -43
24 -22 -5 -22 -5 -5 -39 26 -51 62 -73 119 -74 89 -1 150 55 137 125 -8 40
-36 60 -121 88 -66 21 -78 29 -80 49 -8 54 74 70 127 25 50 -42 86 -11 39 34
-46 42 -107 52 -165 27z"/>
<path d="M4990 1836 c0 -23 4 -25 53 -28 l52 -3 3 -152 3 -153 24 0 25 0 0
155 0 155 50 0 c47 0 50 2 50 25 l0 25 -130 0 -130 0 0 -24z"/>
<path d="M5317 1853 c-4 -3 -7 -84 -7 -180 l0 -173 25 0 25 0 0 180 c0 168 -1
180 -18 180 -10 0 -22 -3 -25 -7z"/>
<path d="M5503 1840 c-88 -53 -98 -238 -17 -310 28 -24 44 -30 82 -30 27 0 53
5 60 12 9 9 15 9 24 0 7 -7 20 -12 30 -12 16 0 18 10 18 100 l0 101 -67 -3
c-62 -3 -68 -5 -71 -25 -3 -21 1 -23 42 -23 39 0 46 -3 46 -20 0 -53 -53 -100
-98 -86 -57 18 -89 119 -62 200 21 65 91 87 144 45 25 -20 29 -20 43 -6 20 20
8 38 -41 61 -45 21 -94 20 -133 -4z"/>
<path d="M5886 1852 c-7 -12 -136 -341 -136 -348 0 -3 12 -4 26 -2 21 2 30 12
43 48 l17 45 72 3 73 3 21 -51 c17 -40 25 -50 44 -50 13 0 24 3 24 8 0 4 -30
84 -67 177 -56 141 -72 171 -90 173 -11 2 -24 -1 -27 -6z m46 -125 c34 -83 36
-77 -22 -77 -28 0 -50 4 -48 8 2 4 12 31 22 60 11 29 22 52 25 52 4 0 14 -19
23 -43z"/>
<path d="M6172 1840 c-88 -54 -98 -237 -16 -309 28 -25 44 -31 80 -31 47 0 91
17 114 45 11 13 11 19 -3 32 -15 16 -18 15 -42 -7 -35 -33 -87 -32 -121 2 -46
46 -45 168 1 214 31 31 82 32 119 3 25 -20 29 -20 43 -6 20 20 8 38 -41 61
-46 22 -94 20 -134 -4z"/>
<path d="M6440 1681 l0 -181 25 0 25 0 -2 178 c-3 175 -3 177 -25 180 l-23 3
0 -180z"/>
<path d="M6629 1837 c-54 -36 -71 -78 -67 -172 3 -66 7 -86 27 -112 32 -42 70
-57 133 -51 42 4 57 11 79 36 53 59 63 183 22 255 -37 65 -131 86 -194 44z
m136 -51 c26 -26 41 -96 31 -150 -13 -71 -71 -109 -128 -85 -41 17 -58 57 -58
133 0 55 4 69 26 95 34 40 92 44 129 7z"/>
<path d="M6914 1847 c-2 -7 -3 -87 -2 -177 l3 -165 25 0 c25 0 25 0 30 118 l5
119 73 -121 c62 -102 77 -121 98 -121 l24 0 -2 178 c-3 169 -4 177 -23 177
-19 0 -20 -8 -25 -125 l-5 -125 -78 128 c-57 93 -84 127 -98 127 -11 0 -22 -6
-25 -13z"/>
<path d="M1617 1760 c-48 -13 -86 -32 -127 -67 -35 -29 -90 -108 -90 -129 0
-10 71 -64 85 -64 2 0 16 21 29 48 41 81 105 122 188 122 99 -1 168 -63 168
-153 0 -96 -34 -141 -201 -268 -195 -149 -259 -235 -267 -356 l-4 -63 316 0
316 0 0 50 0 50 -250 0 c-228 0 -250 1 -250 17 0 44 75 118 273 267 123 93
165 155 182 269 15 100 -50 218 -143 259 -50 23 -169 32 -225 18z"/>
<path d="M2834 1555 l-42 -65 139 -103 c184 -135 219 -155 255 -142 35 12 74
68 74 105 0 15 -10 36 -24 49 -18 17 -353 222 -360 221 0 0 -20 -30 -42 -65z"/>
<path d="M3630 1231 l0 -181 78 1 c156 1 185 32 180 189 -6 142 -23 159 -170
168 l-88 5 0 -182z m192 99 c17 -21 19 -37 16 -112 -2 -52 -8 -92 -16 -100 -6
-6 -41 -14 -77 -16 l-65 -4 0 132 0 132 61 -4 c50 -4 66 -9 81 -28z"/>
<path d="M3960 1230 l0 -180 120 0 120 0 0 25 c0 25 0 25 -95 25 l-95 0 0 55
0 55 80 0 c79 0 80 0 80 25 0 25 -1 25 -80 25 l-80 0 0 50 0 50 96 0 c93 0 95
1 92 23 -3 21 -7 22 -120 25 l-118 3 0 -181z"/>
<path d="M4270 1231 l0 -181 105 0 105 0 0 25 c0 25 -1 25 -80 25 l-79 0 -3
153 c-3 149 -3 152 -25 155 l-23 3 0 -180z"/>
<path d="M4791 1393 c-16 -30 -131 -322 -131 -333 0 -6 11 -10 24 -10 20 0 27
9 42 50 l18 51 74 -3 74 -3 18 -45 c14 -36 23 -46 45 -48 32 -4 36 -20 -49
193 -51 129 -67 161 -84 163 -12 2 -25 -4 -31 -15z m57 -133 l21 -60 -49 0
c-28 0 -50 2 -50 4 0 13 44 116 49 116 4 0 17 -27 29 -60z"/>
<path d="M5095 1400 c-11 -4 -30 -19 -43 -32 -68 -74 -51 -262 29 -303 37 -19
99 -19 127 1 20 14 22 14 22 0 0 -10 9 -16 25 -16 l25 0 0 100 0 100 -70 0
c-68 0 -70 -1 -70 -25 0 -23 4 -25 46 -25 l47 0 -7 -32 c-9 -47 -33 -68 -78
-68 -67 0 -96 54 -86 161 7 65 37 99 88 99 24 0 43 -7 55 -20 21 -24 38 -25
54 -6 10 11 7 19 -11 36 -40 38 -104 51 -153 30z"/>
<path d="M5350 1293 c0 -140 10 -183 51 -217 24 -20 42 -26 79 -26 62 0 92 14
116 53 16 27 19 52 19 167 0 131 -1 135 -22 138 -21 3 -22 0 -25 -131 -4 -159
-12 -177 -83 -177 -71 0 -79 18 -83 176 l-4 134 -24 0 -24 0 0 -117z"/>
<path d="M5725 1243 c-37 -93 -69 -174 -72 -180 -3 -9 4 -13 21 -13 23 0 30 8
48 50 l21 50 73 0 73 0 18 -50 c15 -44 21 -50 45 -50 l28 0 -18 48 c-110 283
-123 312 -147 312 -21 0 -30 -18 -90 -167z m110 40 c33 -80 33 -83 -20 -83
-44 0 -47 1 -41 23 8 32 35 97 41 97 3 0 12 -17 20 -37z"/>
<path d="M2390 1259 c0 -14 5 -19 17 -17 26 5 29 38 4 38 -15 0 -21 -6 -21
-21z"/>
<path d="M2490 1135 l0 -135 55 0 c75 0 95 20 95 95 0 69 -22 95 -80 95 l-40
0 0 40 c0 29 -4 40 -15 40 -13 0 -15 -22 -15 -135z m111 -2 c26 -68 -22 -131
-65 -87 -18 18 -21 66 -6 95 16 30 58 25 71 -8z"/>
<path d="M2767 1193 c-57 -5 -84 -35 -72 -81 4 -15 6 -42 6 -61 -2 -43 12 -52
65 -44 46 6 63 -7 38 -31 -20 -21 -70 -21 -82 0 -5 9 -16 14 -25 13 -14 -3
-15 -8 -4 -28 31 -62 157 -35 157 33 0 33 -23 48 -67 44 -50 -4 -59 15 -10 23
48 8 60 20 61 63 1 19 5 38 9 42 13 14 7 34 -10 32 -10 -1 -39 -3 -66 -5z m28
-52 c10 -31 -5 -52 -34 -49 -26 3 -38 26 -27 54 8 21 53 18 61 -5z"/>
<path d="M1960 1115 c0 -99 16 -117 98 -113 l57 3 0 90 c0 77 -2 90 -17 93
-16 3 -18 -5 -18 -66 0 -78 -13 -98 -55 -88 -24 6 -25 10 -25 81 0 68 -2 75
-20 75 -18 0 -20 -7 -20 -75z"/>
<path d="M2177 1183 c-4 -3 -7 -46 -7 -95 0 -81 2 -88 20 -88 18 0 20 7 20 69
0 77 13 97 55 87 24 -6 25 -10 25 -81 0 -68 2 -75 20 -75 18 0 20 7 20 69 0
95 -20 121 -94 121 -29 0 -56 -3 -59 -7z"/>
<path d="M2390 1074 c0 -107 -1 -116 -20 -121 -11 -3 -20 -14 -20 -25 0 -15 5
-18 23 -13 47 15 52 29 56 155 3 116 2 120 -18 120 -20 0 -21 -5 -21 -116z"/>
</g>
</svg>
